<?xml version="1.0" encoding="UTF-8"?><svg id="Layer_2" xmlns="http://www.w3.org/2000/svg" xmlns:xlink="http://www.w3.org/1999/xlink" viewBox="0 0 2720 3360"><defs><style>.cls-1{fill:url(#linear-gradient);}</style><linearGradient id="linear-gradient" x1="-42.71" y1="277.29" x2="2762.71" y2="3082.71" gradientUnits="userSpaceOnUse"><stop offset=".2" stop-color="#ff6465"/><stop offset="1" stop-color="#64ff64"/></linearGradient></defs><g id="Layer_1-2"><path class="cls-1" d="M2720,2960V400c0-220.55-179.45-400-400-400H400C179.45,0,0,179.45,0,400V2960c0,220.55,179.45,400,400,400h1920c220.55,0,400-179.45,400-400Zm-2560,0V400c0-132.34,107.66-240,240-240h1920c132.34,0,240,107.66,240,240V2960c0,132.34-107.66,240-240,240H400c-132.34,0-240-107.66-240-240Zm936.56-1496.56c31.25,31.25,31.25,81.88,0,113.12l-320.08,320c-15,15-35.31,23.44-56.56,23.44s-41.56-8.44-56.56-23.44l-159.92-160c-31.25-31.25-31.25-81.88,0-113.12s81.88-31.25,113.12,0l103.36,103.44,263.52-263.44c31.25-31.25,81.88-31.25,113.12,0Zm1143.44,216.56c0,44.22-35.78,80-80,80h-800c-44.22,0-80-35.78-80-80s35.78-80,80-80h800c44.22,0,80,35.78,80,80Zm0-800c0,44.22-35.78,80-80,80h-800c-44.22,0-80-35.78-80-80s35.78-80,80-80h800c44.22,0,80,35.78,80,80Zm-1597.58,0c0-44.22,35-80,79.14-80h1.64c44.14,0,80,35.78,80,80s-35.86,80-80,80-80.78-35.78-80.78-80Zm1597.58,1600c0,44.22-35.78,80-80,80h-800c-44.22,0-80-35.78-80-80s35.78-80,80-80h800c44.22,0,80,35.78,80,80Zm-1436.8,0c0,44.22-35.86,80-80,80s-80.78-35.78-80.78-80,35-80,79.14-80h1.64c44.14,0,80,35.78,80,80Z"/></g></svg>